# xmcd
#
# Track frame offsets:
#	150
#	14507
#	26720
#	44340
#	63932
#	81975
#	99802
#	113335
#	131015
#	148960
#	164697
#
# Disc length: 2445 seconds
#
# Revision: 1
# Processed by: cddbd v1.5.2PL0 Copyright (c) Steve Scherf et al.
# Submitted via: audiograbber 1.83.01
#
DISCID=92098b0b
DTITLE=Dave Loggins - Country Suite
DYEAR=1976
DGENRE=Country
TTITLE0=Movin´ to the country
TTITLE1=I´m gonna Farm you off my mind
TTITLE2=Wild Millie the mountain girl
TTITLE3=The weatherman
TTITLE4=Lovin´ somebody on a rainy night
TTITLE5=You´ve got me to hold on to
TTITLE6=Come on over to my place
TTITLE7=Goodbye Miss Sadness
TTITLE8=Believin´ in love (ain´t that easy)
TTITLE9=I ain´t goin nowhere
TTITLE10=Saviour of my natural life
EXTD=
EXTT0=
EXTT1=
EXTT2=
EXTT3=
EXTT4=
EXTT5=
EXTT6=
EXTT7=
EXTT8=
EXTT9=
EXTT10=
PLAYORDER=
